<svg version="1.2" xmlns="http://www.w3.org/2000/svg" viewBox="0 0 557 584" width="557" height="584">
	<title>noun-notification-1114208-svg</title>
	<style>
		.s0 { fill: #000000 } 
	</style>
	<g id="Layer">
		<path id="Layer" class="s0" d="m354.6 119.4h-198.5c-27.3 0-49.4 22.1-49.4 49.4v247.1c0 27.3 22.1 49.4 49.4 49.4h247.1c27.3 0 49.4-22.1 49.4-49.4v-198.5c8.7-1.3 17-3.8 24.7-7.5v206c0 40.9-33.2 74.1-74.1 74.1h-247.1c-40.9 0-74.1-33.2-74.1-74.1v-247.1c0-40.9 33.2-74.1 74.1-74.1h206c-3.7 7.7-6.2 16-7.5 24.7z"/>
		<path id="Layer" fill-rule="evenodd" class="s0" d="m440.2 193.5c-34.1 0-61.7-27.6-61.7-61.7 0-34.2 27.6-61.8 61.7-61.8 34.1 0 61.8 27.6 61.8 61.8 0 34.1-27.7 61.7-61.8 61.7zm0-24.7c20.5 0 37.1-16.6 37.1-37 0-20.5-16.6-37.1-37.1-37.1-20.4 0-37 16.6-37 37.1 0 20.4 16.6 37 37 37z"/>
	</g>
</svg>